<svg xmlns="http://www.w3.org/2000/svg" width="1000" height="690" viewBox="0 0 1000 690" font-family="Inter,Helvetica,Arial,sans-serif">

  <defs>
    <marker id="ar" markerUnits="userSpaceOnUse" markerWidth="11" markerHeight="11" refX="6" refY="4" orient="auto">
      <path d="M0,0 L8,4 L0,8 Z" fill="#8e9297"/>
    </marker>
    <pattern id="removed" width="7" height="7" patternUnits="userSpaceOnUse" patternTransform="rotate(45)">
      <rect width="7" height="7" fill="#161b21"/>
      <line x1="0" y1="0" x2="0" y2="7" stroke="#3a4049" stroke-width="1.6"/>
    </pattern>
  </defs>
<rect width="1000" height="690" fill="#0f1419"/>
<text x="40" y="32" fill="#d8d9da" font-size="18" font-weight="600">How each configuration changes the variable flow into Optimize</text>
<text x="40" y="52" fill="#8e9297" font-size="12">Engine → ES Exporter → <tspan font-style="italic">zeebe-record*</tspan> → Optimize.  <tspan fill="#E0A800">Gold</tspan> = variables flowing.</text>
<text x="40" y="70" fill="#8e9297" font-size="12">Each lever changes only this path. Operate / Tasklist (served by the Camunda Exporter) keep full variables in every configuration.</text>
<rect x="18" y="86" width="474" height="170" rx="9" fill="#161b21" stroke="#2a2f37" stroke-width="1"/>
<text x="36" y="114" fill="#d8d9da" font-size="13.5" font-weight="600">Baseline</text>
<text x="36" y="133" fill="#8e9297" font-size="10.5" font-family="monospace">(none): export &amp; import all variables</text>
<line x1="30" y1="202" x2="54" y2="202" stroke="#3a4049" stroke-width="7" stroke-linecap="round" marker-end="url(#ar)"/>
<text x="30" y="189" fill="#8e9297" font-size="9">engine</text>
<rect x="56" y="180" width="84" height="44" rx="6" fill="#0f1419" stroke="#E0A800" stroke-width="1.2"/>
<text x="98.0" y="199" fill="#d8d9da" font-size="10.5" font-weight="600" text-anchor="middle">ES Exporter</text>
<text x="98.0" y="213" fill="#8e9297" font-size="9" text-anchor="middle">variable gate</text>
<line x1="140" y1="202" x2="208" y2="202" stroke="#E0A800" stroke-width="9" stroke-linecap="round" marker-end="url(#ar)"/>
<circle cx="174.0" cy="202" r="8" fill="#161b21" stroke="#16A34A" stroke-width="2"/><path d="M170.5,202 L173.0,205 L178.0,198.5" stroke="#16A34A" stroke-width="1.8" fill="none"/>
<rect x="210" y="180" width="84" height="44" rx="6" fill="#0f1419" stroke="#3B82F6" stroke-width="1.2"/>
<text x="252.0" y="199" fill="#d8d9da" font-size="10" font-weight="600" text-anchor="middle">Elasticsearch</text>
<text x="252.0" y="212" fill="#8e9297" font-size="8.5" text-anchor="middle">zeebe-record*</text>
<text x="252.0" y="238" fill="#E0A800" font-size="9" text-anchor="middle">● all variables</text>
<line x1="294" y1="202" x2="362" y2="202" stroke="#E0A800" stroke-width="9" stroke-linecap="round" marker-end="url(#ar)"/>
<circle cx="328.0" cy="202" r="8" fill="#161b21" stroke="#16A34A" stroke-width="2"/><path d="M324.5,202 L327.0,205 L332.0,198.5" stroke="#16A34A" stroke-width="1.8" fill="none"/>
<rect x="364" y="180" width="112" height="44" rx="6" fill="#E0A800" stroke="#E0A800" stroke-width="1.2"/>
<text x="420.0" y="199" fill="#0b0e12" font-size="11" font-weight="700" text-anchor="middle">Optimize</text>
<text x="420.0" y="213" fill="#0b0e12" font-size="8.5" text-anchor="middle">full variables</text>
<rect x="508" y="86" width="474" height="170" rx="9" fill="#161b21" stroke="#2a2f37" stroke-width="1"/>
<text x="526" y="114" fill="#d8d9da" font-size="13.5" font-weight="600">Optimize mode</text>
<text x="526" y="133" fill="#8e9297" font-size="10.5" font-family="monospace">optimizeModeEnabled=true</text>
<line x1="520" y1="202" x2="544" y2="202" stroke="#3a4049" stroke-width="7" stroke-linecap="round" marker-end="url(#ar)"/>
<text x="520" y="189" fill="#8e9297" font-size="9">engine</text>
<rect x="546" y="180" width="84" height="44" rx="6" fill="#0f1419" stroke="#E0A800" stroke-width="1.2"/>
<text x="588.0" y="199" fill="#d8d9da" font-size="10.5" font-weight="600" text-anchor="middle">ES Exporter</text>
<text x="588.0" y="213" fill="#8e9297" font-size="9" text-anchor="middle">variable gate</text>
<line x1="630" y1="202" x2="698" y2="202" stroke="#E0A800" stroke-width="9" stroke-linecap="round" marker-end="url(#ar)"/>
<circle cx="664.0" cy="202" r="8" fill="#161b21" stroke="#16A34A" stroke-width="2"/><path d="M660.5,202 L663.0,205 L668.0,198.5" stroke="#16A34A" stroke-width="1.8" fill="none"/>
<line x1="630" y1="224" x2="656" y2="224" stroke="#3a4049" stroke-width="4" stroke-linecap="round"/>
<path d="M660,220 L668,228 M668,220 L660,228" stroke="#ef4444" stroke-width="1.6"/>
<text x="674" y="228" fill="#8e9297" font-size="9">jobs / non-variable records dropped</text>
<rect x="700" y="180" width="84" height="44" rx="6" fill="#0f1419" stroke="#3B82F6" stroke-width="1.2"/>
<text x="742.0" y="199" fill="#d8d9da" font-size="10" font-weight="600" text-anchor="middle">Elasticsearch</text>
<text x="742.0" y="212" fill="#8e9297" font-size="8.5" text-anchor="middle">zeebe-record*</text>
<text x="742.0" y="238" fill="#E0A800" font-size="9" text-anchor="middle">● all variables</text>
<line x1="784" y1="202" x2="852" y2="202" stroke="#E0A800" stroke-width="9" stroke-linecap="round" marker-end="url(#ar)"/>
<circle cx="818.0" cy="202" r="8" fill="#161b21" stroke="#16A34A" stroke-width="2"/><path d="M814.5,202 L817.0,205 L822.0,198.5" stroke="#16A34A" stroke-width="1.8" fill="none"/>
<rect x="854" y="180" width="112" height="44" rx="6" fill="#E0A800" stroke="#E0A800" stroke-width="1.2"/>
<text x="910.0" y="199" fill="#0b0e12" font-size="11" font-weight="700" text-anchor="middle">Optimize</text>
<text x="910.0" y="213" fill="#0b0e12" font-size="8.5" text-anchor="middle">full variables</text>
<rect x="18" y="268" width="474" height="170" rx="9" fill="#161b21" stroke="#2a2f37" stroke-width="1"/>
<text x="36" y="296" fill="#d8d9da" font-size="13.5" font-weight="600">Prefix filter</text>
<text x="36" y="315" fill="#8e9297" font-size="10.5" font-family="monospace">variableNameInclusionStartWith=customer</text>
<line x1="30" y1="384" x2="54" y2="384" stroke="#3a4049" stroke-width="7" stroke-linecap="round" marker-end="url(#ar)"/>
<text x="30" y="371" fill="#8e9297" font-size="9">engine</text>
<rect x="56" y="362" width="84" height="44" rx="6" fill="#0f1419" stroke="#E0A800" stroke-width="1.2"/>
<text x="98.0" y="381" fill="#d8d9da" font-size="10.5" font-weight="600" text-anchor="middle">ES Exporter</text>
<text x="98.0" y="395" fill="#8e9297" font-size="9" text-anchor="middle">variable gate</text>
<line x1="140" y1="384" x2="208" y2="384" stroke="#E0A800" stroke-width="4" stroke-linecap="round" marker-end="url(#ar)"/>
<circle cx="174.0" cy="384" r="8" fill="#161b21" stroke="#E0A800" stroke-width="2"/><circle cx="174.0" cy="384" r="2.4" fill="#E0A800"/>
<rect x="210" y="362" width="84" height="44" rx="6" fill="#0f1419" stroke="#3B82F6" stroke-width="1.2"/>
<text x="252.0" y="381" fill="#d8d9da" font-size="10" font-weight="600" text-anchor="middle">Elasticsearch</text>
<text x="252.0" y="394" fill="#8e9297" font-size="8.5" text-anchor="middle">zeebe-record*</text>
<text x="252.0" y="420" fill="#E0A800" font-size="9" text-anchor="middle">◑ customer* only</text>
<line x1="294" y1="384" x2="362" y2="384" stroke="#E0A800" stroke-width="4" stroke-linecap="round" marker-end="url(#ar)"/>
<circle cx="328.0" cy="384" r="8" fill="#161b21" stroke="#16A34A" stroke-width="2"/><path d="M324.5,384 L327.0,387 L332.0,380.5" stroke="#16A34A" stroke-width="1.8" fill="none"/>
<rect x="364" y="362" width="112" height="44" rx="6" fill="url(#removed)" stroke="#E0A800" stroke-width="1.2"/>
<rect x="364" y="362" width="44.800000000000004" height="44" rx="6" fill="#E0A800"/>
<rect x="402.8" y="362" width="6" height="44" fill="#E0A800"/>
<text x="420.0" y="381" fill="#d8d9da" font-size="11" font-weight="700" text-anchor="middle">Optimize</text>
<text x="420.0" y="395" fill="#d8d9da" font-size="8.5" text-anchor="middle">subset only</text>
<rect x="508" y="268" width="474" height="170" rx="9" fill="#161b21" stroke="#2a2f37" stroke-width="1"/>
<text x="526" y="296" fill="#d8d9da" font-size="13.5" font-weight="600">Importer off</text>
<text x="526" y="315" fill="#8e9297" font-size="10.5" font-family="monospace">VARIABLE_IMPORT_ENABLED=false</text>
<line x1="520" y1="384" x2="544" y2="384" stroke="#3a4049" stroke-width="7" stroke-linecap="round" marker-end="url(#ar)"/>
<text x="520" y="371" fill="#8e9297" font-size="9">engine</text>
<rect x="546" y="362" width="84" height="44" rx="6" fill="#0f1419" stroke="#E0A800" stroke-width="1.2"/>
<text x="588.0" y="381" fill="#d8d9da" font-size="10.5" font-weight="600" text-anchor="middle">ES Exporter</text>
<text x="588.0" y="395" fill="#8e9297" font-size="9" text-anchor="middle">variable gate</text>
<line x1="630" y1="384" x2="698" y2="384" stroke="#E0A800" stroke-width="9" stroke-linecap="round" marker-end="url(#ar)"/>
<circle cx="664.0" cy="384" r="8" fill="#161b21" stroke="#16A34A" stroke-width="2"/><path d="M660.5,384 L663.0,387 L668.0,380.5" stroke="#16A34A" stroke-width="1.8" fill="none"/>
<rect x="700" y="362" width="84" height="44" rx="6" fill="#0f1419" stroke="#3B82F6" stroke-width="1.2"/>
<text x="742.0" y="381" fill="#d8d9da" font-size="10" font-weight="600" text-anchor="middle">Elasticsearch</text>
<text x="742.0" y="394" fill="#8e9297" font-size="8.5" text-anchor="middle">zeebe-record*</text>
<text x="742.0" y="420" fill="#E0A800" font-size="9" text-anchor="middle">● all variables</text>
<line x1="784" y1="384" x2="852" y2="384" stroke="#3a4049" stroke-width="3" stroke-dasharray="4,4" stroke-linecap="round"/>
<circle cx="818.0" cy="384" r="8" fill="#161b21" stroke="#ef4444" stroke-width="2"/><path d="M814.8,380.8 L821.2,387.2 M821.2,380.8 L814.8,387.2" stroke="#ef4444" stroke-width="1.8"/>
<rect x="854" y="362" width="112" height="44" rx="6" fill="url(#removed)" stroke="#E0A800" stroke-width="1.2"/>
<text x="910.0" y="381" fill="#8e9297" font-size="11" font-weight="700" text-anchor="middle">Optimize</text>
<text x="910.0" y="395" fill="#8e9297" font-size="8.5" text-anchor="middle">no variables</text>
<rect x="18" y="450" width="474" height="170" rx="9" fill="#161b21" stroke="#E0A800" stroke-width="1.6"/>
<text x="36" y="478" fill="#d8d9da" font-size="13.5" font-weight="600">Exporter variable off</text>
<text x="199.6" y="478" fill="#E0A800" font-size="12" font-weight="600">★ recommended</text>
<text x="36" y="497" fill="#8e9297" font-size="10.5" font-family="monospace">index.variable=false</text>
<line x1="30" y1="566" x2="54" y2="566" stroke="#3a4049" stroke-width="7" stroke-linecap="round" marker-end="url(#ar)"/>
<text x="30" y="553" fill="#8e9297" font-size="9">engine</text>
<rect x="56" y="544" width="84" height="44" rx="6" fill="#0f1419" stroke="#E0A800" stroke-width="1.2"/>
<text x="98.0" y="563" fill="#d8d9da" font-size="10.5" font-weight="600" text-anchor="middle">ES Exporter</text>
<text x="98.0" y="577" fill="#8e9297" font-size="9" text-anchor="middle">variable gate</text>
<line x1="140" y1="566" x2="208" y2="566" stroke="#3a4049" stroke-width="3" stroke-dasharray="4,4" stroke-linecap="round"/>
<circle cx="174.0" cy="566" r="8" fill="#161b21" stroke="#ef4444" stroke-width="2"/><path d="M170.8,562.8 L177.2,569.2 M177.2,562.8 L170.8,569.2" stroke="#ef4444" stroke-width="1.8"/>
<rect x="210" y="544" width="84" height="44" rx="6" fill="#0f1419" stroke="#3B82F6" stroke-width="1.2"/>
<text x="252.0" y="563" fill="#d8d9da" font-size="10" font-weight="600" text-anchor="middle">Elasticsearch</text>
<text x="252.0" y="576" fill="#8e9297" font-size="8.5" text-anchor="middle">zeebe-record*</text>
<text x="252.0" y="602" fill="#8e9297" font-size="9" text-anchor="middle">○ no variables</text>
<line x1="294" y1="566" x2="362" y2="566" stroke="#3a4049" stroke-width="3" stroke-dasharray="4,4" stroke-linecap="round"/>
<circle cx="328.0" cy="566" r="8" fill="#161b21" stroke="#16A34A" stroke-width="2"/><path d="M324.5,566 L327.0,569 L332.0,562.5" stroke="#16A34A" stroke-width="1.8" fill="none"/>
<rect x="364" y="544" width="112" height="44" rx="6" fill="url(#removed)" stroke="#E0A800" stroke-width="1.2"/>
<text x="420.0" y="563" fill="#8e9297" font-size="11" font-weight="700" text-anchor="middle">Optimize</text>
<text x="420.0" y="577" fill="#8e9297" font-size="8.5" text-anchor="middle">no variables</text>
<rect x="508" y="450" width="474" height="170" rx="9" fill="#161b21" stroke="#2a2f37" stroke-width="1"/>
<text x="526" y="478" fill="#d8d9da" font-size="13.5" font-weight="600">Exporter off + importer off</text>
<text x="526" y="497" fill="#8e9297" font-size="10.5" font-family="monospace">index.variable=false + IMPORT_ENABLED=false</text>
<line x1="520" y1="566" x2="544" y2="566" stroke="#3a4049" stroke-width="7" stroke-linecap="round" marker-end="url(#ar)"/>
<text x="520" y="553" fill="#8e9297" font-size="9">engine</text>
<rect x="546" y="544" width="84" height="44" rx="6" fill="#0f1419" stroke="#E0A800" stroke-width="1.2"/>
<text x="588.0" y="563" fill="#d8d9da" font-size="10.5" font-weight="600" text-anchor="middle">ES Exporter</text>
<text x="588.0" y="577" fill="#8e9297" font-size="9" text-anchor="middle">variable gate</text>
<line x1="630" y1="566" x2="698" y2="566" stroke="#3a4049" stroke-width="3" stroke-dasharray="4,4" stroke-linecap="round"/>
<circle cx="664.0" cy="566" r="8" fill="#161b21" stroke="#ef4444" stroke-width="2"/><path d="M660.8,562.8 L667.2,569.2 M667.2,562.8 L660.8,569.2" stroke="#ef4444" stroke-width="1.8"/>
<rect x="700" y="544" width="84" height="44" rx="6" fill="#0f1419" stroke="#3B82F6" stroke-width="1.2"/>
<text x="742.0" y="563" fill="#d8d9da" font-size="10" font-weight="600" text-anchor="middle">Elasticsearch</text>
<text x="742.0" y="576" fill="#8e9297" font-size="8.5" text-anchor="middle">zeebe-record*</text>
<text x="742.0" y="602" fill="#8e9297" font-size="9" text-anchor="middle">○ no variables</text>
<line x1="784" y1="566" x2="852" y2="566" stroke="#3a4049" stroke-width="3" stroke-dasharray="4,4" stroke-linecap="round"/>
<circle cx="818.0" cy="566" r="8" fill="#161b21" stroke="#ef4444" stroke-width="2"/><path d="M814.8,562.8 L821.2,569.2 M821.2,562.8 L814.8,569.2" stroke="#ef4444" stroke-width="1.8"/>
<rect x="854" y="544" width="112" height="44" rx="6" fill="url(#removed)" stroke="#E0A800" stroke-width="1.2"/>
<text x="910.0" y="563" fill="#8e9297" font-size="11" font-weight="700" text-anchor="middle">Optimize</text>
<text x="910.0" y="577" fill="#8e9297" font-size="8.5" text-anchor="middle">no variables</text>
<line x1="18" y1="628" x2="982" y2="628" stroke="#2a2f37" stroke-width="1"/>
<circle cx="32" cy="642" r="7" fill="#161b21" stroke="#16A34A" stroke-width="2"/>
<path d="M28.5,642 L31,645 L36,638.5" stroke="#16A34A" stroke-width="1.6" fill="none"/>
<text x="44" y="646" fill="#8e9297" font-size="10.5">gate open</text>
<circle cx="132" cy="642" r="7" fill="#161b21" stroke="#ef4444" stroke-width="2"/>
<path d="M129,639 L135,645 M135,639 L129,645" stroke="#ef4444" stroke-width="1.6"/>
<text x="144" y="646" fill="#8e9297" font-size="10.5">gate closed</text>
<circle cx="244" cy="642" r="7" fill="#161b21" stroke="#E0A800" stroke-width="2"/>
<circle cx="244" cy="642" r="2.2" fill="#E0A800"/>
<text x="256" y="646" fill="#8e9297" font-size="10.5">gate narrowed</text>
<line x1="364" y1="642" x2="392" y2="642" stroke="#E0A800" stroke-width="9" stroke-linecap="round"/>
<text x="400" y="646" fill="#8e9297" font-size="10.5">variables flowing</text>
<line x1="516" y1="642" x2="544" y2="642" stroke="#3a4049" stroke-width="3" stroke-dasharray="4,4"/>
<text x="552" y="646" fill="#8e9297" font-size="10.5">no flow</text>
<rect x="624" y="635" width="20" height="14" rx="2" fill="url(#removed)" stroke="#E0A800" stroke-width="1"/>
<text x="652" y="646" fill="#8e9297" font-size="10.5">Optimize index emptied of variables</text>
</svg>